# xmcd
#
# Track frame offsets:
#  150
#  13430
#  25994
#  37807
#  53002
#  63031
#  74186
#  86814
#  100185
#  113413
#  125513
#  137699
#  151241
#  163156
#  177392
#  188501
#  200903
#  212311
#  225129
#  240296
#  264489
#  282709
#  300782
#  316051
#
# Disc length: 4388 seconds
#
# Revision: 0
# Processed by: cddbd v1.5.2PL0 Copyright (c) Steve Scherf et al.
# Submitted via: Collectorz.com_Music_Collector 6.9
#
DISCID=3e112218
DTITLE=Tyrone Davis - The Dakar Records A's and B's: The Hit Singles - Disc 1
DYEAR=2004
DGENRE=Soul
TTITLE0=Can I Change My Mind
TTITLE1=Woman Needs to Be Loved
TTITLE2=Is It Something You've Got
TTITLE3=Undying Love
TTITLE4=Need Your Lovin' (Everyday)
TTITLE5=Waiting Was Not in Vain
TTITLE6=If It's Love That You're After
TTITLE7=When I'm Not Around
TTITLE8=Turn Back the Hands of Time
TTITLE9=I Keep Coming Back
TTITLE10=I'll Be Right Here
TTITLE11=Just Because of You
TTITLE12=Let Me Back In
TTITLE13=Love Bones
TTITLE14=Could I Forget You
TTITLE15=Just My Way of Loving You
TTITLE16=One Way Ticket
TTITLE17=We Got a Love (No One Can Deny)
TTITLE18=You Keep Me Holding On
TTITLE19=I Had It All the Time
TTITLE20=You Wouldn't Believe
TTITLE21=Was I Just a Fool
TTITLE22=After All This Time
TTITLE23=Come and Get This Ring
EXTD=
EXTT0=
EXTT1=
EXTT2=
EXTT3=
EXTT4=
EXTT5=
EXTT6=
EXTT7=
EXTT8=
EXTT9=
EXTT10=
EXTT11=
EXTT12=
EXTT13=
EXTT14=
EXTT15=
EXTT16=
EXTT17=
EXTT18=
EXTT19=
EXTT20=
EXTT21=
EXTT22=
EXTT23=
PLAYORDER=
